<?xml version="1.0" encoding="UTF-8"?>
<svg width="32" height="32" viewBox="0 0 32 32" fill="none" xmlns="http://www.w3.org/2000/svg">
  <rect width="32" height="32" rx="6" fill="#2196f3"/>
  <path d="M16 8C11.582 8 8 11.582 8 16s3.582 8 8 8c1.408 0 2.728-.365 3.872-1.005l2.795 3.005 1.333-1.333-2.564-2.564C22.969 20.728 24 18.475 24 16c0-4.418-3.582-8-8-8zm0 13.333c-2.941 0-5.333-2.392-5.333-5.333s2.392-5.333 5.333-5.333S21.333 13.059 21.333 16 18.941 21.333 16 21.333z" fill="white"/>
  <path d="M22 16h-4v2.667h1.333v-1.334H22c.733 0 1.333-.6 1.333-1.333v-2.667c0-.733-.6-1.333-1.333-1.333h-4v1.333h4V16z" fill="white"/>
</svg> 