<?xml version="1.0" encoding="UTF-8"?>
<svg width="48" height="32" viewBox="0 0 48 32" fill="none" xmlns="http://www.w3.org/2000/svg">
  <!-- Q letter -->
  <path d="M16 4C9.373 4 4 9.373 4 16s5.373 12 12 12c2.112 0 4.092-.547 5.808-1.507l4.192 4.507 2-2-3.846-3.846C26.453 23.092 28 19.712 28 16c0-6.627-5.373-12-12-12zm0 20c-4.411 0-8-3.589-8-8s3.589-8 8-8 8 3.589 8 8-3.589 8-8 8z" fill="#2196f3"/>
  <!-- G letter -->
  <path d="M44 16h-8v6h3v-3h5c1.1 0 2-.9 2-2v-6c0-1.1-.9-2-2-2h-8v3h8v4z" fill="#2196f3"/>
</svg> 